<svg xmlns="http://www.w3.org/2000/svg" width="49px" height="49px" viewBox="0 0 49 49">
    <path d="M0.846,23.818 C0.846,12.791 9.806,2.452 21.621,0.975 C30.089,-0.01 36.489,3.24 40.919,7.473 C45.054,11.411 47.517,16.433 48.107,22.341 C48.599,28.248 47.32,33.368 43.874,38.193 C40.428,42.92 33.634,48.138 25.166,48.138 L13.646,48.138 L13.646,25.394 C13.745,20.372 15.418,16.04 21.523,13.972 C26.84,12.397 33.043,15.35 34.914,20.963 C36.883,26.969 34.027,31.006 30.68,33.468 C27.333,35.93 22.114,35.93 18.668,33.567 L18.668,41.345 C20.933,42.428 23.788,42.723 25.856,42.625 C33.338,41.541 39.148,37.308 41.61,30.908 C44.171,24.114 42.397,16.237 37.081,11.314 C30.681,6.095 23.69,4.815 16.207,8.459 C10.989,11.118 7.346,16.533 6.459,22.44 L6.459,48.139 L0.945,48.139 L0.846,23.818 L0.846,23.818 Z"></path>
</svg>