<?xml version="1.0" encoding="UTF-8"?>
<svg width="280px" height="240px" viewBox="0 0 280 240" version="1.1" xmlns="http://www.w3.org/2000/svg" xmlns:xlink="http://www.w3.org/1999/xlink">
    <!-- Generator: Sketch 42 (36781) - http://www.bohemiancoding.com/sketch -->
    <title>Group</title>
    <desc>Created with Sketch.</desc>
    <defs></defs>
    <g id="Page-1" stroke="none" stroke-width="1" fill="none" fill-rule="evenodd">
        <g id="Group" fill="#000000">
            <rect id="Rectangle" x="40" y="0" width="40" height="40"></rect>
            <rect id="Rectangle" x="80" y="0" width="40" height="40"></rect>
            <rect id="Rectangle" x="160" y="0" width="40" height="40"></rect>
            <rect id="Rectangle" x="200" y="0" width="40" height="40"></rect>
            <rect id="Rectangle" x="40" y="40" width="40" height="40"></rect>
            <rect id="Rectangle" x="0" y="40" width="40" height="40"></rect>
            <rect id="Rectangle" x="0" y="80" width="40" height="40"></rect>
            <rect id="Rectangle" x="40" y="120" width="40" height="40"></rect>
            <rect id="Rectangle" x="80" y="160" width="40" height="40"></rect>
            <rect id="Rectangle" x="200" y="120" width="40" height="40"></rect>
            <rect id="Rectangle" x="160" y="160" width="40" height="40"></rect>
            <rect id="Rectangle" x="120" y="200" width="40" height="40"></rect>
            <rect id="Rectangle" x="80" y="40" width="40" height="40"></rect>
            <rect id="Rectangle" x="120" y="40" width="40" height="40"></rect>
            <rect id="Rectangle" x="120" y="80" width="40" height="40"></rect>
            <rect id="Rectangle" x="40" y="80" width="40" height="40"></rect>
            <rect id="Rectangle" x="80" y="80" width="40" height="40"></rect>
            <rect id="Rectangle" x="200" y="40" width="40" height="40"></rect>
            <rect id="Rectangle" x="160" y="40" width="40" height="40"></rect>
            <rect id="Rectangle" x="160" y="80" width="40" height="40"></rect>
            <rect id="Rectangle" x="120" y="120" width="40" height="40"></rect>
            <rect id="Rectangle" x="120" y="160" width="40" height="40"></rect>
            <rect id="Rectangle" x="80" y="120" width="40" height="40"></rect>
            <rect id="Rectangle" x="160" y="120" width="40" height="40"></rect>
            <rect id="Rectangle" x="240" y="40" width="40" height="40"></rect>
            <rect id="Rectangle" x="200" y="80" width="40" height="40"></rect>
            <rect id="Rectangle" x="240" y="80" width="40" height="40"></rect>
        </g>
    </g>
</svg>